<svg xmlns="http://www.w3.org/2000/svg" width="40" height="40" viewBox="0 0 40 40">
  <g id="Group_199" data-name="Group 199" transform="translate(-595.961 -148.961)">
    <circle id="Ellipse_5" data-name="Ellipse 5" cx="20" cy="20" r="20" transform="translate(595.961 148.961)" fill="#ccbeea"/>
    <path id="Path_2" data-name="Path 2" d="M11.516.538,9.492,0,7.468.538,0,2.522V11.1a12.686,12.686,0,0,0,.393,3.139L4.308,13.2l3.159-.839.563-.149h0l1.462-.381,1.462.381h0l.563.149,3.159.839a8.6,8.6,0,0,1-5.183,5.911,8.542,8.542,0,0,1-3.226-2.242L2.041,18a12.65,12.65,0,0,0,7.451,5.367,12.561,12.561,0,0,0,2.024-.711A12.641,12.641,0,0,0,18.984,11.1v-.945h0L14.936,9.083l-3.419-.908-.129-.035L9.492,7.678,7.6,8.14l-.129.035-3.419.908V5.635l3.419-.908,2.024-.538,2.024.538,1.709.454,1.709.454,4.048,1.076V2.522Z" transform="translate(606.469 157.281)" fill="#1d0128"/>
  </g>
</svg>
