<svg xmlns="http://www.w3.org/2000/svg" width="52.586" height="52.586" viewBox="0 0 52.586 52.586">
  <path id="Icon_awesome-user-circle" data-name="Icon awesome-user-circle" d="M26.293.563A26.293,26.293,0,1,0,52.586,26.855,26.288,26.288,0,0,0,26.293.563Zm0,10.178a9.33,9.33,0,1,1-9.33,9.33A9.33,9.33,0,0,1,26.293,10.74Zm0,36.471a20.316,20.316,0,0,1-15.532-7.231A11.821,11.821,0,0,1,21.2,33.641a2.594,2.594,0,0,1,.753.117,14.037,14.037,0,0,0,4.336.732,13.984,13.984,0,0,0,4.336-.732,2.594,2.594,0,0,1,.753-.117,11.821,11.821,0,0,1,10.443,6.34A20.316,20.316,0,0,1,26.293,47.211Z" transform="translate(0 -0.563)" fill="#ded5f1"/>
</svg>
